<svg width="40" height="40" viewBox="0 0 40 40" fill="none" xmlns="http://www.w3.org/2000/svg">
<g filter="url(#filter0_d_6_149)">
<path d="M20 0C8.9525 0 0 8.9525 0 20C0 31.0475 8.9525 40 20 40C31.0475 40 40 31.0475 40 20C40 8.9525 31.0475 0 20 0ZM15 30C9.47 30 5 25.5325 5 20C5 14.4675 9.47 10 15 10C17.7025 10 19.96 10.985 21.7025 12.6175L18.9825 15.2275C18.24 14.5175 16.9425 13.6875 14.9975 13.6875C11.5825 13.6875 8.795 16.515 8.795 20C8.795 23.485 11.585 26.3125 14.9975 26.3125C18.9575 26.3125 20.4425 23.47 20.67 22H14.9975V18.57H24.4425C24.5275 19.07 24.6 19.57 24.6 20.2275C24.6 25.945 20.7725 30 14.9975 30H15ZM32.5 20V22.5H30V20H27.5V17.5H30V15H32.5V17.5H35V20H32.5Z" fill="white"/>
<path d="M22.4292 12.6132L22.0487 12.9783L19.3287 15.5883L18.9831 15.9199L18.6369 15.5889C17.9656 14.9469 16.7863 14.1875 14.9975 14.1875C11.8664 14.1875 9.295 16.7833 9.295 20C9.295 23.2166 11.8688 25.8125 14.9975 25.8125C18.1615 25.8125 19.581 23.8629 20.0333 22.5H14.9975H14.4975V22V18.57V18.07H14.9975H24.4425H24.8647L24.9354 18.4862C25.0223 18.9975 25.1 19.5291 25.1 20.2275C25.1 23.1994 24.1036 25.7729 22.323 27.6062C20.5414 29.4405 18.0077 30.4994 15 30.5L22.4292 12.6132ZM22.4292 12.6132L22.0443 12.2526C20.2123 10.5362 17.8337 9.5 15 9.5C9.19394 9.5 4.5 14.1913 4.5 20C4.5 25.8079 9.19259 30.4987 14.9975 30.5L22.4292 12.6132ZM32.5 23H33V22.5V20.5H35H35.5V20V17.5V17H35H33V15V14.5H32.5H30H29.5V15V17H27.5H27V17.5V20V20.5H27.5H29.5V22.5V23H30H32.5ZM0.5 20C0.5 9.22864 9.22864 0.5 20 0.5C30.7714 0.5 39.5 9.22864 39.5 20C39.5 30.7714 30.7714 39.5 20 39.5C9.22864 39.5 0.5 30.7714 0.5 20Z" stroke="black"/>
</g>
<defs>
<filter id="filter0_d_6_149" x="-4" y="0" width="48" height="48" filterUnits="userSpaceOnUse" color-interpolation-filters="sRGB">
<feFlood flood-opacity="0" result="BackgroundImageFix"/>
<feColorMatrix in="SourceAlpha" type="matrix" values="0 0 0 0 0 0 0 0 0 0 0 0 0 0 0 0 0 0 127 0" result="hardAlpha"/>
<feOffset dy="4"/>
<feGaussianBlur stdDeviation="2"/>
<feComposite in2="hardAlpha" operator="out"/>
<feColorMatrix type="matrix" values="0 0 0 0 0 0 0 0 0 0 0 0 0 0 0 0 0 0 0.25 0"/>
<feBlend mode="normal" in2="BackgroundImageFix" result="effect1_dropShadow_6_149"/>
<feBlend mode="normal" in="SourceGraphic" in2="effect1_dropShadow_6_149" result="shape"/>
</filter>
</defs>
</svg>
