<svg width="40" height="40" viewBox="0 0 40 40" fill="none" xmlns="http://www.w3.org/2000/svg">
<g filter="url(#filter0_d_6_145)">
<path d="M20 40C17.2917 40 14.7005 39.4727 12.2266 38.418C9.7526 37.3633 7.6237 35.944 5.83984 34.1602C4.05599 32.3763 2.63672 30.2474 1.58203 27.7734C0.527344 25.2995 0 22.7083 0 20C0 17.2917 0.527344 14.7005 1.58203 12.2266C2.63672 9.7526 4.05599 7.6237 5.83984 5.83984C7.6237 4.05599 9.7526 2.63672 12.2266 1.58203C14.7005 0.527344 17.2917 0 20 0C22.7083 0 25.2995 0.527344 27.7734 1.58203C30.2474 2.63672 32.3763 4.05599 34.1602 5.83984C35.944 7.6237 37.3633 9.7526 38.418 12.2266C39.4727 14.7005 40 17.2917 40 20C40 22.7083 39.4727 25.2995 38.418 27.7734C37.3633 30.2474 35.944 32.3763 34.1602 34.1602C32.3763 35.944 30.2474 37.3633 27.7734 38.418C25.2995 39.4727 22.7083 40 20 40ZM31.7578 10C31.6016 10.0781 31.3672 10.2214 31.0547 10.4297L30.293 10.9375L29.5703 11.3281L28.75 11.6016C27.7865 10.5339 26.6016 10 25.1953 10C22.1484 10 20.625 11.276 20.625 13.8281V16.1328C16.4323 15.9245 13.2161 14.388 10.9766 11.5234C10.3255 12.2005 10 12.9427 10 13.75C10 15.4688 10.638 16.7708 11.9141 17.6562C11.7578 17.6562 11.5365 17.6693 11.25 17.6953C10.9635 17.7214 10.7357 17.7214 10.5664 17.6953C10.3971 17.6693 10.2083 17.6042 10 17.5C10 18.6979 10.319 19.694 10.957 20.4883C11.5951 21.2826 12.474 21.7969 13.5938 22.0312C13.3333 22.3438 12.9688 22.5 12.5 22.5C12.0833 22.5 11.7188 22.3828 11.4062 22.1484C11.4062 23.1641 11.8945 23.9518 12.8711 24.5117C13.8477 25.0716 14.9479 25.3646 16.1719 25.3906C15.7031 26.0938 15.0195 26.6211 14.1211 26.9727C13.2227 27.3242 12.2656 27.5 11.25 27.5C10.8854 27.5 10.3841 27.4089 9.74609 27.2266C9.10807 27.0443 8.77604 26.9531 8.75 26.9531C9.16667 27.7865 10.0195 28.5026 11.3086 29.1016C12.5977 29.7005 14.2318 30 16.2109 30C17.9557 30 19.5833 29.694 21.0938 29.082C22.6042 28.4701 23.8932 27.6562 24.9609 26.6406C26.0286 25.625 26.9466 24.4661 27.7148 23.1641C28.4831 21.862 29.056 20.5143 29.4336 19.1211C29.8112 17.7279 30 16.3542 30 15C30 14.9479 30.1562 14.8372 30.4688 14.668C30.7812 14.4987 31.1458 14.2708 31.5625 13.9844C31.9792 13.6979 32.2917 13.3984 32.5 13.0859C31.0938 13.0859 30.1562 13.112 29.6875 13.1641C30.599 12.6172 31.2891 11.5625 31.7578 10Z" fill="white"/>
<path d="M32.2367 10.1437L32.5692 9.03526L31.5342 9.55279C31.3483 9.64573 31.0922 9.80378 30.7773 10.0137L30.0349 10.5086L29.3709 10.8676L28.8931 11.0268C27.8775 10.0151 26.6369 9.5 25.1953 9.5C23.6143 9.5 22.3354 9.82923 21.4465 10.5737C20.5407 11.3324 20.125 12.4495 20.125 13.8281V15.5998C16.3123 15.2999 13.4136 13.8288 11.3705 11.2155L11.0155 10.7615L10.6161 11.1769C9.89128 11.9307 9.5 12.7924 9.5 13.75C9.5 15.1303 9.8859 16.2924 10.6666 17.2045C10.6582 17.2034 10.6502 17.2023 10.6424 17.2011C10.5392 17.1852 10.401 17.1415 10.2236 17.0528L9.5 16.691V17.5C9.5 18.7909 9.84581 19.9033 10.5672 20.8014C10.6744 20.9348 10.7874 21.0609 10.9062 21.1798V22.1484C10.9062 23.3656 11.5108 24.3082 12.6224 24.9455C13.3943 25.388 14.2347 25.674 15.1391 25.8065C14.8091 26.0882 14.4109 26.3223 13.9389 26.507C13.1015 26.8347 12.2066 27 11.25 27C10.9553 27 10.507 26.9239 9.88345 26.7458C9.564 26.6545 9.31949 26.5856 9.15091 26.5393C9.06699 26.5163 8.99956 26.4982 8.95024 26.4857C8.92602 26.4795 8.90273 26.4738 8.88257 26.4693C8.8728 26.4671 8.85977 26.4644 8.84572 26.4619L8.84514 26.4618C8.83933 26.4607 8.79846 26.4531 8.75 26.4531H7.94098L8.30279 27.1767C8.79055 28.1523 9.75754 28.9322 11.0979 29.555C12.4736 30.1942 14.1857 30.5 16.2109 30.5C18.0155 30.5 19.7073 30.1833 21.2815 29.5454C22.8439 28.9124 24.1878 28.0661 25.3055 27.0029C26.4077 25.9545 27.3543 24.7591 28.1455 23.4181C28.9354 22.0793 29.5263 20.6904 29.9162 19.2519C30.2837 17.8959 30.4784 16.5538 30.4983 15.2263C30.5513 15.1941 30.62 15.1547 30.7069 15.1076C31.0399 14.9273 31.4201 14.6891 31.8458 14.3964C32.2978 14.0856 32.6625 13.7436 32.916 13.3633L33.4343 12.5859H32.5C31.948 12.5859 31.4637 12.5899 31.0488 12.5981C31.5495 11.9578 31.9408 11.1303 32.2367 10.1437ZM20 39.5C17.3586 39.5 14.8342 38.9861 12.4226 37.958C10.0036 36.9267 7.92912 35.5423 6.1934 33.8066C4.45767 32.0709 3.07327 29.9964 2.04198 27.5774C1.01391 25.1658 0.5 22.6414 0.5 20C0.5 17.3586 1.01391 14.8342 2.04198 12.4226C3.07327 10.0036 4.45767 7.92912 6.1934 6.1934C7.92912 4.45767 10.0036 3.07327 12.4226 2.04198C14.8342 1.01391 17.3586 0.5 20 0.5C22.6414 0.5 25.1658 1.01391 27.5774 2.04198C29.9964 3.07327 32.0709 4.45767 33.8066 6.1934C35.5423 7.92912 36.9267 10.0036 37.958 12.4226C38.9861 14.8342 39.5 17.3586 39.5 20C39.5 22.6414 38.9861 25.1658 37.958 27.5774C36.9267 29.9964 35.5423 32.0709 33.8066 33.8066C32.0709 35.5423 29.9964 36.9267 27.5774 37.958C25.1658 38.9861 22.6414 39.5 20 39.5Z" stroke="black"/>
</g>
<defs>
<filter id="filter0_d_6_145" x="-4" y="0" width="48" height="48" filterUnits="userSpaceOnUse" color-interpolation-filters="sRGB">
<feFlood flood-opacity="0" result="BackgroundImageFix"/>
<feColorMatrix in="SourceAlpha" type="matrix" values="0 0 0 0 0 0 0 0 0 0 0 0 0 0 0 0 0 0 127 0" result="hardAlpha"/>
<feOffset dy="4"/>
<feGaussianBlur stdDeviation="2"/>
<feComposite in2="hardAlpha" operator="out"/>
<feColorMatrix type="matrix" values="0 0 0 0 0 0 0 0 0 0 0 0 0 0 0 0 0 0 0.25 0"/>
<feBlend mode="normal" in2="BackgroundImageFix" result="effect1_dropShadow_6_145"/>
<feBlend mode="normal" in="SourceGraphic" in2="effect1_dropShadow_6_145" result="shape"/>
</filter>
</defs>
</svg>
